<svg width="200" height="200" viewBox="0 0 200 200" fill="none" xmlns="http://www.w3.org/2000/svg">
<path fill-rule="evenodd" clip-rule="evenodd" d="M200 100C200 155.229 155.229 200 100 200C44.7715 200 0 155.229 0 100C0 44.7715 44.7715 0 100 0C155.229 0 200 44.7715 200 100ZM71.6628 139.795H52.2557C48.1776 139.795 46.1632 139.795 44.935 139.009C43.6084 138.149 42.7977 136.724 42.6995 135.152C42.6257 133.703 43.633 131.934 45.6474 128.396L93.5662 43.9328C95.6052 40.3461 96.6369 38.5527 97.9389 37.8895C99.3391 37.1771 101.01 37.1771 102.41 37.8895C103.712 38.5527 104.744 40.3461 106.783 43.9328L116.634 61.129L116.684 61.2168C118.886 65.0646 120.003 67.0158 120.491 69.0638C121.031 71.2993 121.031 73.6577 120.491 75.8932C119.999 77.9567 118.894 79.9221 116.658 83.8281L91.4877 128.323L91.4226 128.436C89.2059 132.316 88.0824 134.282 86.5254 135.766C84.8304 137.387 82.7913 138.566 80.5558 139.23C78.5168 139.795 76.2322 139.795 71.6628 139.795ZM120.672 139.795H148.481C152.583 139.795 154.647 139.795 155.876 138.985C157.202 138.125 158.037 136.675 158.112 135.104C158.182 133.702 157.197 132.001 155.266 128.669C155.2 128.556 155.133 128.44 155.065 128.323L141.136 104.494L140.977 104.226C139.02 100.916 138.032 99.2442 136.763 98.5981C135.364 97.8856 133.716 97.8856 132.317 98.5981C131.039 99.2614 130.008 101.006 127.969 104.519L114.089 128.348L114.041 128.43C112.009 131.937 110.994 133.69 111.067 135.128C111.165 136.7 111.976 138.149 113.303 139.009C114.506 139.795 116.57 139.795 120.672 139.795Z" fill="#E84142"/>
</svg>
