<svg width="200" height="200" viewBox="0 0 200 200" fill="none" xmlns="http://www.w3.org/2000/svg">
<g clip-path="url(#clip0_16_88)">
<path d="M46.664 30.832L100 0L153.336 30.832L133.336 41.664L100 22.496L65.832 41.664L46.664 30.832ZM152.496 69.168L133.328 58.336L100 77.504L65.832 58.336L46.664 69.168V91.672L80 110.84V150.008L99.168 161.672L118.336 150.008V111.672L151.672 92.504V69.168H152.496ZM152.496 130.832V108.336L133.336 120V141.664L152.496 130.832ZM166.664 138.336L133.328 157.504V180L186.664 149.168V87.504L166.664 100V138.336ZM147.504 50L166.672 61.664V84.168L185.84 72.504V50L166.672 38.336L147.504 50ZM80 165.832V188.328L99.168 199.992L118.336 188.328V165.832L99.168 177.496L80 165.832ZM46.664 130.832L65.832 141.664V119.168L46.664 107.504V130.832ZM80 50L99.168 61.664L119.168 50L100 38.336L80 50ZM32.496 61.664L52.496 50L32.496 38.336L13.336 50V72.496L32.504 84.16V61.664H32.496ZM32.496 100L13.328 88.336V150L66.664 180.832V158.336L33.328 139.168V100H32.496Z" fill="#F0B90B"/>
</g>
<defs>
<clipPath id="clip0_16_88">
<rect width="200" height="200" fill="white"/>
</clipPath>
</defs>
</svg>
