<svg width="200" height="200" viewBox="0 0 200 200" fill="none" xmlns="http://www.w3.org/2000/svg">
<circle cx="100" cy="100" r="100" fill="white"/>
<path d="M99.4999 161.145C97.2803 161.217 95.0607 160.429 93.4139 158.926C91.7671 157.422 90.6931 155.346 90.4783 153.126L89.4759 145.178C79.8099 142.458 74.1535 135.298 72.7215 123.913L64.0579 56.8956C62.1963 56.6092 60.3347 56.466 58.4015 56.466C55.6091 56.466 52.8167 56.824 50.0959 57.54V159.14H33.0551V77.4448C33.0551 66.3468 37.9955 58.5424 47.0887 55.2488V49.9504C47.0887 43.8644 50.8119 39.7832 56.2535 39.7832C61.7667 39.7832 65.2035 43.22 66.0627 49.4492L66.7071 54.318C76.5879 57.1104 82.3875 65.058 84.1059 78.0176L92.1251 142.601C96.9223 143.532 101.863 143.532 106.66 142.601L114.679 78.0176C116.326 65.058 122.197 57.1104 132.078 54.318L132.722 49.4492C133.581 43.22 137.09 39.7832 142.531 39.7832C147.973 39.7832 151.696 43.8644 151.696 49.9504V55.2488C160.718 58.4708 165.73 66.3468 165.73 77.4448V159.14H148.689V57.54C145.968 56.824 143.176 56.466 140.383 56.466C138.522 56.466 136.589 56.5376 134.727 56.8956L126.063 123.913C124.631 135.083 118.832 142.386 109.309 145.178L108.378 153.126C108.235 155.417 107.161 157.494 105.514 158.997C103.796 160.501 101.576 161.288 99.3567 161.145H99.4999ZM92.6263 145.966L93.4855 152.84C93.5571 154.343 94.2731 155.775 95.3471 156.778C96.4927 157.78 97.9247 158.281 99.4283 158.21C100.144 158.281 100.932 158.138 101.648 157.923C102.364 157.708 103.008 157.279 103.581 156.778C104.154 156.276 104.583 155.704 104.941 154.988C105.228 154.343 105.443 153.556 105.443 152.84L106.302 145.966C101.719 146.682 97.1371 146.682 92.5547 145.966H92.6263ZM151.911 156.205H162.866V77.5164C162.866 68.1368 159.071 61.6212 151.911 58.614V156.205ZM36.0623 156.205H47.0887V58.614C39.9287 61.6212 36.1339 68.1368 36.1339 77.5164L36.0623 156.205ZM67.2083 57.7548L75.7287 123.555C76.9459 133.078 81.4567 139.236 89.0463 141.885L81.1703 78.5188C79.7383 67.3492 75.1559 60.5472 67.2083 57.7548ZM131.791 57.7548C123.844 60.5472 119.261 67.3492 117.829 78.5188L109.953 141.813C117.615 139.092 122.054 133.006 123.271 123.484L131.791 57.7548ZM50.1675 54.3896C52.8883 53.7452 55.6807 53.3872 58.4731 53.4588C60.1915 53.4588 61.9815 53.5304 63.6999 53.7452L63.1987 49.9504C62.5543 45.2964 60.2631 42.9336 56.3967 42.9336C52.5303 42.9336 50.2391 45.6544 50.2391 50.0936V54.4612L50.1675 54.3896ZM140.67 53.4588C143.462 53.4588 146.255 53.7452 148.975 54.3896V50.0936C148.975 45.726 146.613 42.9336 142.818 42.9336C139.023 42.9336 136.66 45.2964 136.016 49.9504L135.515 53.7452C137.233 53.5304 138.951 53.3872 140.741 53.4588V53.3872L140.67 53.4588Z" fill="#2D2D2D"/>
</svg>
