<svg width="200" height="200" viewBox="0 0 200 200" fill="none" xmlns="http://www.w3.org/2000/svg">
<circle cx="100" cy="100" r="100" fill="white"/>
<path fill-rule="evenodd" clip-rule="evenodd" d="M139.418 85.9005L139.415 85.908C146.35 94.6042 150.494 105.619 150.494 117.599C150.494 129.757 146.226 140.921 139.103 149.676L138.49 150.429L138.327 149.472C138.189 148.657 138.027 147.834 137.838 147.005C134.273 131.343 122.66 117.913 103.546 107.039C90.6387 99.7164 83.2504 90.8987 81.3106 80.8801C80.0579 74.4017 80.9893 67.8947 82.7892 62.321C84.5886 56.7493 87.2653 52.0811 89.5393 49.2706L89.5408 49.2688L96.9762 40.1765C98.2802 38.5821 100.72 38.5821 102.024 40.1765L139.418 85.9005ZM151.178 76.8166L151.179 76.8132L101.342 15.8727C100.391 14.7091 98.6093 14.7091 97.6577 15.8727L47.8201 76.8139L47.8215 76.8173L47.6593 77.0184C38.4882 88.3992 33 102.862 33 118.606C33 155.274 62.7725 185 99.5001 185C136.228 185 166 155.274 166 118.606C166 102.862 160.512 88.3994 151.341 77.0184L151.178 76.8166ZM59.7447 85.7042L59.7468 85.7018L64.2043 80.2508L64.3391 81.2572C64.4459 82.0543 64.5753 82.8555 64.7288 83.6603C67.613 98.794 77.9165 111.413 95.1428 121.186C110.117 129.709 118.835 139.509 121.347 150.257C122.395 154.743 122.582 159.156 122.128 163.015L122.1 163.253L121.884 163.359C115.126 166.661 107.528 168.514 99.4986 168.514C71.3351 168.514 48.5028 145.719 48.5028 117.599C48.5028 105.525 52.7118 94.4317 59.7447 85.7042Z" fill="black"/>
</svg>
